<svg xmlns="http://www.w3.org/2000/svg" xmlns:xlink="http://www.w3.org/1999/xlink" width="1600" height="361" viewBox="0 0 1600 361">
  <defs>
    <clipPath id="clip-path">
      <rect id="Rectangle_226" data-name="Rectangle 226" width="1600" height="361" transform="translate(0 136)" fill="#fff" stroke="#707070" stroke-width="1"/>
    </clipPath>
    <clipPath id="clip-path-2">
      <rect id="Rectangle_7" data-name="Rectangle 7" width="3500" height="298" fill="#054f98"/>
    </clipPath>
  </defs>
  <g id="Groupe_de_masques_2" data-name="Groupe de masques 2" transform="translate(0 -136)" clip-path="url(#clip-path)">
    <g id="Groupe_12" data-name="Groupe 12" transform="translate(-831 135)" opacity="0.7">
      <g id="Groupe_10" data-name="Groupe 10" clip-path="url(#clip-path-2)">
        <path id="_8b9e44d09cf7472325ab1ea7ab3909bb" data-name="8b9e44d09cf7472325ab1ea7ab3909bb" d="M3500,174.929c-36.068-11.258-55.95-21.551-92.384-29.3q-54.374-12.564-109.261-20.164a1938.117,1938.117,0,0,0-219.816-17.709c-146.787-3.862-293.629,5.053-440.361,19.135-293.529,28.377-586.866,76.48-883.247,114.006-74.131,9.1-148.39,18.229-222.867,26.187-74.542,7.449-149.21,14.877-224.19,19.911-74.96,5.052-150.13,9.241-225.537,10.382q-113.057,2.476-226.6-3.25c-151.086-8.2-303.076-28.2-450.364-72.446C331.9,199.322,259.63,171.281,191.1,134.529A1030.4,1030.4,0,0,1,91.36,73.852C59.51,51.151,28.625,27.013,0,0H3499.585Z" fill="#054f98"/>
      </g>
    </g>
  </g>
</svg>
