<svg xmlns="http://www.w3.org/2000/svg" width="697.77" height="697.77" viewBox="0 0 697.77 697.77">
  <g id="Tracé_1108" data-name="Tracé 1108" fill="none" opacity="0.194">
    <path d="M348.885,0A348.749,348.749,0,0,1,697.77,348.885c0,192.684-156.2,348.885-348.885,348.885S0,541.569,0,348.885,156.2,0,348.885,0Z" stroke="none"/>
    <path d="M 348.8847961425781 1 C 337.0177001953125 1 325.0501708984375 1.604248046875 313.3144226074219 2.79608154296875 C 301.7488098144531 3.970703125 290.1273498535156 5.74432373046875 278.7727966308594 8.06781005859375 C 256.4370727539062 12.63836669921875 234.4669799804688 19.458251953125 213.4726257324219 28.33807373046875 C 192.8592529296875 37.05682373046875 172.9775390625 47.8482666015625 154.3798217773438 60.41259765625 C 135.9584350585938 72.85791015625 118.6358642578125 87.15032958984375 102.89306640625 102.89306640625 C 87.15032958984375 118.6358642578125 72.85791015625 135.9584350585938 60.41259765625 154.3798217773438 C 47.8482666015625 172.9775390625 37.05682373046875 192.8592529296875 28.33807373046875 213.4726257324219 C 19.458251953125 234.4669799804688 12.63836669921875 256.4370727539062 8.06781005859375 278.7727966308594 C 5.74432373046875 290.1273498535156 3.970703125 301.7488098144531 2.79608154296875 313.3144226074219 C 1.604248046875 325.0501708984375 1 337.0177001953125 1 348.8847961425781 C 1 360.7518920898438 1.604248046875 372.7194213867188 2.79608154296875 384.4551696777344 C 3.970703125 396.0207824707031 5.74432373046875 407.6422424316406 8.06781005859375 418.9967956542969 C 12.63836669921875 441.33251953125 19.458251953125 463.3026123046875 28.33807373046875 484.2969970703125 C 37.05682373046875 504.9103393554688 47.8482666015625 524.7920532226562 60.41259765625 543.3897705078125 C 72.85791015625 561.8111572265625 87.15032958984375 579.1337280273438 102.89306640625 594.8765258789062 C 118.6358642578125 610.6192626953125 135.9584350585938 624.9116821289062 154.3798217773438 637.3569946289062 C 172.9775390625 649.9213256835938 192.8592529296875 660.7127685546875 213.4726257324219 669.4315185546875 C 234.4669799804688 678.3113403320312 256.4370727539062 685.1312255859375 278.7727966308594 689.7017822265625 C 290.1273498535156 692.0252685546875 301.7488098144531 693.7988891601562 313.3144226074219 694.9735107421875 C 325.0501708984375 696.1653442382812 337.0177001953125 696.7695922851562 348.8847961425781 696.7695922851562 C 360.7518920898438 696.7695922851562 372.7194213867188 696.1653442382812 384.4551696777344 694.9735107421875 C 396.0207824707031 693.7988891601562 407.6422424316406 692.0252685546875 418.9967956542969 689.7017822265625 C 441.33251953125 685.1312255859375 463.3026123046875 678.3113403320312 484.2969970703125 669.4315185546875 C 504.9103393554688 660.7127685546875 524.7920532226562 649.9213256835938 543.3897705078125 637.3569946289062 C 561.8111572265625 624.9116821289062 579.1337280273438 610.6192626953125 594.8765258789062 594.8765258789062 C 610.6192626953125 579.1337280273438 624.9116821289062 561.8111572265625 637.3569946289062 543.3897705078125 C 649.9213256835938 524.7920532226562 660.7127685546875 504.9103393554688 669.4315185546875 484.2969970703125 C 678.3113403320312 463.3026123046875 685.1312255859375 441.33251953125 689.7017822265625 418.9967956542969 C 692.0252685546875 407.6422424316406 693.7988891601562 396.0207824707031 694.9735107421875 384.4551696777344 C 696.1653442382812 372.7194213867188 696.7695922851562 360.7518920898438 696.7695922851562 348.8847961425781 C 696.7695922851562 316.4897155761719 692.3181762695312 284.4166259765625 683.5390014648438 253.5563354492188 C 675.0258178710938 223.63134765625 662.4690551757812 194.9082641601562 646.2174072265625 168.1849975585938 C 631.0537719726562 143.250732421875 612.7405395507812 120.2452392578125 591.7863159179688 99.8076171875 C 570.813232421875 79.35162353515625 547.32470703125 61.595458984375 521.9732666015625 47.0323486328125 C 496.1883544921875 32.2203369140625 468.5919799804688 20.78289794921875 439.9505310058594 13.0377197265625 C 410.4122619628906 5.050048828125 379.7733459472656 1 348.8847961425781 1 M 348.8847961425781 0 C 475.2853393554688 0 585.9859619140625 67.2188720703125 647.07177734375 167.6653442382812 C 679.2854614257812 220.6356201171875 697.7695922851562 282.6016235351562 697.7695922851562 348.8847961425781 C 697.7695922851562 541.5685424804688 541.5685424804688 697.7695922851562 348.8847961425781 697.7695922851562 C 156.2010498046875 697.7695922851562 0 541.5685424804688 0 348.8847961425781 C 0 156.2010498046875 156.2010498046875 0 348.8847961425781 0 Z" stroke="none" fill="#a8968d"/>
  </g>
</svg>
