<?xml version="1.0" encoding="utf-8"?>
<!-- Generator: Adobe Illustrator 26.3.1, SVG Export Plug-In . SVG Version: 6.00 Build 0)  -->
<svg version="1.1" id="Calque_1" xmlns="http://www.w3.org/2000/svg" xmlns:xlink="http://www.w3.org/1999/xlink" x="0px" y="0px"
	 viewBox="0 0 1600 447" style="enable-background:new 0 0 1600 447;" xml:space="preserve">
<style type="text/css">
	.st0{fill:none;}
	.st1{fill:#FFFFFF;}
</style>
<g>
	<path class="st0" d="M24.7,293.1c-8.2-0.4-16.5-0.9-24.7-1.4v5.3h155.8C112.2,296.6,68.5,295.3,24.7,293.1z"/>
</g>
<path class="st1" d="M1600,148.8c-224.5,27.5-449.4,62.4-676.1,91.1c-74.1,9.1-148.4,18.2-222.9,26.2
	c-74.5,7.4-149.2,14.9-224.2,19.9c-75,5.1-150.1,9.2-225.5,10.4c-13.6,0.3-27.2,0.5-40.8,0.6h-54.7c-43.6-0.4-87.3-1.7-131.1-3.9
	c-8.2-0.4-16.5-0.9-24.7-1.4V447h1600V148.8z"/>
</svg>
