<?xml version="1.0" encoding="utf-8"?>
<!-- Generator: Adobe Illustrator 26.2.0, SVG Export Plug-In . SVG Version: 6.00 Build 0)  -->
<svg version="1.1" id="Calque_1" xmlns="http://www.w3.org/2000/svg" xmlns:xlink="http://www.w3.org/1999/xlink" x="0px" y="0px"
	 viewBox="0 0 53.5 56.7" style="enable-background:new 0 0 53.5 56.7;" xml:space="preserve">
<style type="text/css">
	.st0{fill:#FFFFFF;}
	.st1{fill:#055098;}
</style>
<g>
	<g id="Groupe_1">
		<path id="Tracé_2" class="st0" d="M27.7,6.6c-1,0.7-2.3,3.4-2.3,3.4c-2.6,5-2.5,15.2,6.8,15.1c-0.9,4.2-6.6,1.8-10.6,1.7
			c-9-0.1-12.9,4.6-12.6,10c0,0.7-0.4,6.7-2.5,6.9l0.2,8.6c0,0,1,1.2,3.3,0.4l0.9-6.3l0.9-1.6c6,5.1,12,3.4,14.9,1.9
			c0.6-0.3,1.3-0.3,1.9,0c6,2.8,7.8,9,8.5,9.1c1.4,0.2,1.9,0.7,3.2,0.2c0.5-0.1,0.8-0.6,0.6-1.1c0,0,0-0.1,0-0.1
			c-1-1.3-2.9-7.2-2.9-7.2c-0.6-1.5-2.7-3.9-4.3-5.5c4.4-3.7,9-14.4,13.2-17.8c1.1-0.3,2.1-0.9,3-1.6l2.9-2l0.3-1.2l-0.6-1.7
			l0.2-2.2c-0.9-1.6-2.2-2.9-3.8-3.9c-0.8-0.9-1.5-1.9-2-3l-3.3-2.9l-4-2.5C39.6,3.2,39,1,38,1c-0.8,0.4-1.4,1-1.9,1.7l-7.1,0.8
			l-1.4-0.2L26.7,3l-1.1,1.6l1.2,2.2L27.7,6.6z"/>
		<path id="Tracé_3" class="st0" d="M0.4,13.7c0.6,0.5,1.3,0.9,2,1.2L2.4,14l1.5,0.9c0,0,3,0.6,2.3,2.7l-0.6,1.2
			c-1.5-0.1-2.9-0.6-4.1-1.6C1.5,17.3,0.1,14.5,0.4,13.7"/>
		<path id="Tracé_4" class="st1" d="M27.2,38.6c0,0,3.2,1.6-0.4,2.5c0.6,1.6-1.6,2.4-2.1,0.4c-1.5,0.1-2.7-1.4-0.7-2.5
			c-0.9-0.9,0-2.3,1.1-1.4C25.8,36.4,28.1,37,27.2,38.6"/>
		<path id="Tracé_5" class="st1" d="M28.1,7.1c0.2-0.3,0.2-0.7,0-0.9c0,0-0.1-0.1-0.1-0.1c-0.1-0.1-0.5,0.3-0.8,0
			c-0.2-0.3-0.3-0.6-0.6-0.9c-0.5-0.6-0.7-0.8-1-0.9c-5.3-2.3-6.9-0.2-7.2,0s-1,0.6,1.3,4.1c1.2,2,3.7,2.7,5.7,1.7
			c0-0.8,0.3-1.6,0.9-2.2C26.8,7.4,27.4,7.1,28.1,7.1"/>
		<path id="Tracé_6" class="st1" d="M45.9,10.7c-0.6,0.2-1.4-0.5-1.6-1.2c-0.2-0.5,0-1.1,0.5-1.3c0.1,0,0.1,0,0.2-0.1
			c0.7-0.1,1.4,0.3,1.6,1C46.9,9.8,46.6,10.5,45.9,10.7C45.9,10.7,45.9,10.7,45.9,10.7"/>
		<path id="Tracé_7" class="st1" d="M15.6,46.8c-1.2-0.3-2.3-0.9-3.3-1.7c-0.9-0.8-2.3-2.6-2.1-2.8c0.7,0.9,1.6,1.7,2.5,2.5
			C13.6,45.5,14.6,46.2,15.6,46.8"/>
		<path id="Tracé_8" class="st1" d="M10.6,43.2c0.5,0.5,0.7,1.4,0.3,2c0.4,0.1,0.7-1.1,0.7-1.1"/>
		<path id="Tracé_9" class="st1" d="M46.1,8.1C45.8,7.9,45.4,7.8,45,8c-0.3,0.3-0.5,0.7-0.4,1.1c0,0.9,0.5,1.8,1.2,2.4
			c-0.8-0.5-1.4-1.4-1.6-2.4c-0.1-0.5,0.1-1.1,0.4-1.5c0.2-0.2,0.6-0.3,0.9-0.3c0.3,0,0.6,0.1,0.9,0.2L46.1,8.1z"/>
		<path id="Tracé_10" class="st1" d="M51.6,15.5c0,0-1.8,1.4-1.4,3c0.4,1.3,1.2,0.7,1.1,0.2C51.3,17.9,50.2,17.9,51.6,15.5"/>
		<path id="Tracé_11" class="st1" d="M41.5,17.7c0,0,2.8,0.6,3,2.8c0.1,1.6-1,1.3-1.4,0.8c-0.6-0.7,1-1-0.6-2.8
			C41.8,17.6,41.5,17.7,41.5,17.7"/>
		<path id="Tracé_12" class="st1" d="M33.6,18.8c0.4-0.6,1.2-0.7,1.7-0.4c0.2,0.1,0.3,0.3,0.3,0.5c-0.2-0.1-0.3-0.1-0.5-0.2
			c-0.2,0-0.3,0-0.5,0C34.4,18.8,34.1,18.8,33.6,18.8"/>
		<path id="Tracé_13" class="st1" d="M47.5,10.1c-0.3,0.4-0.6,0.7-1,1c-0.1,0.1,0.3-0.4,0.3-0.4l0.5-0.9"/>
		<path id="Tracé_14" class="st1" d="M45.9,11.4c-0.1-0.1-0.1-0.3,0-0.4c0.1-0.1,0.2-0.2,0.4-0.2c0.1,0,0.2,0,0.3-0.1
			c0.1,0,0.1-0.1,0.2-0.1c0.1-0.1,0.2-0.2,0.3-0.3c0.1-0.2,0.2-0.4,0.3-0.6c0.1,0.2,0.1,0.4,0.1,0.6c0,0.3-0.1,0.5-0.4,0.7
			c-0.1,0.1-0.2,0.1-0.4,0.2c-0.1,0-0.2,0-0.4,0C46.2,11.3,46,11.2,45.9,11.4"/>
		<path id="Tracé_25" class="st1" d="M53.4,18.8c-0.1-0.2-0.1-0.4-0.2-0.7l0-0.1c0,0,0-0.1,0-0.1c0-0.1,0-0.2,0-0.3
			c0-0.4,0.1-0.8,0.2-1.3c0-0.4,0-0.9-0.2-1.3c-0.1-0.2-0.2-0.4-0.3-0.6c-0.4-0.5-0.8-1-1.3-1.5c-0.5-0.4-1-0.8-1.5-1.2
			c-0.5-0.3-0.9-0.7-1.2-1.2c-0.7-0.9-1.2-2-2.1-3c-0.7-0.8-1.4-1.5-2.2-2.1c0.3-0.2,0.7-0.4,0.9-0.6c1.5-1.4,1-4.2,0.8-4.5
			s-1.3-0.6-3.2-0.3c-1.3,0.3-2.4,1.2-3.1,2.3c-0.2-0.8-0.8-1.4-1.5-1.6c-0.8-0.1-1.7,0.3-2.1,1C36.1,1.9,36.1,2,36,2.2
			c-0.5,0.1-0.9,0.1-1.4,0.2c-0.6,0.1-1.2,0.2-1.8,0.3c-0.6,0-1.3,0-1.9,0c-0.3,0-0.7,0.1-1,0.1c-0.4,0.1-0.8,0.2-1.1,0.5
			c-0.2-0.1-0.5-0.3-0.7-0.4c-0.3-0.1-0.6-0.2-1-0.3c-0.1,0-0.2,0-0.3,0c-0.1,0-0.1,0-0.2,0c0,0-0.1,0-0.1,0l-0.1,0l0,0
			c-0.2,0.1-0.4,0.2-0.5,0.4c-0.2,0.3-0.3,0.6-0.4,1c0,0.3,0,0.7,0.2,1c0.3,0.5,0.7,1,1.3,1.3c-0.2-0.2-0.4-0.5-0.5-0.7
			c-0.1-0.3-0.3-0.5-0.4-0.8c-0.1-0.5,0-1,0.4-1.4c0.1-0.1,0.1-0.1,0.2-0.1h0c0,0,0,0,0,0s0,0,0,0c0.1,0,0.1,0,0.2,0
			c0.3,0.1,0.5,0.2,0.8,0.3c0.6,0.3,1.2,0.4,1.8,0.5l0,0C29.7,4,29.9,4,30.1,3.9c0.2,0,0.3-0.1,0.5-0.1C31,5.1,32.1,6,33.4,6.1
			c0.8,0,1.6,0.4,2.1,1.1c0.2,0.2,0.6-0.5-0.1-1.6s2.6,0.3,3.3,2.1c0.6,1.4,1.2-2.4-0.2-4.2c0.5,0.2,1,0.4,1.4,0.6
			c1.1,0.6,2.1,1.2,3.1,1.9c1,0.7,1.9,1.4,2.7,2.3c0.8,0.9,1.3,1.9,2.1,2.9c0.4,0.5,0.9,1,1.4,1.4c0.5,0.4,1,0.7,1.4,1.1
			c0.1,0.1,0.1,0.1,0.2,0.2c0,0-0.1,0-0.1,0c-0.2,0.1-0.3,0.2-0.4,0.3c-0.2,0.2-0.3,0.4-0.5,0.5c-0.2,0.3-0.5,0.4-0.8,0.4
			c-0.5,0-1,0-1.5,0.1c-1,0.1-1.9,0.3-2.8,0.5c-0.5,0.1-0.9,0.2-1.4,0.4c-0.2,0.1-0.5,0.2-0.7,0.2c-0.1,0-0.1,0.1-0.2,0.1
			c0,0,0,0,0,0c-0.5-0.2-1-0.4-1.5-0.4c-0.3,0-0.6,0.1-0.9,0.2c-0.3,0.1-0.5,0.3-0.7,0.5c-0.4,0.4-0.6,0.9-0.6,1.5
			c0,0.6,0.3,1.1,0.6,1.5l0,0c0.2,0.2,0.5,0.2,0.7,0.1c0.2-0.1,0.2-0.4,0.1-0.6c0,0,0,0,0,0l0,0c-0.2-0.2-0.4-0.6-0.4-0.9
			c0-0.3,0.2-0.6,0.4-0.9c0.2-0.3,0.5-0.4,0.8-0.4c0.4,0.1,0.8,0.2,1.2,0.4c0.1,0,0.2,0.1,0.3,0.1c0.2,0,0.4,0,0.6-0.1
			c0.1-0.1,0.1-0.1,0.1-0.1s0.1,0,0.1,0c0.2-0.1,0.4-0.1,0.6-0.2c0.4-0.1,0.9-0.2,1.3-0.3c0.9-0.2,1.8-0.4,2.7-0.5
			c0.4-0.1,0.9-0.1,1.3-0.1c0.3,0,0.7,0,1-0.2c0.3-0.1,0.5-0.3,0.7-0.5c0.2-0.2,0.3-0.4,0.4-0.5c0,0,0.1-0.1,0.1-0.1c0,0,0,0,0,0
			c0.1,0,0.1,0,0.1,0.1c0.1,0,0.1,0.1,0.2,0.2c0.1,0.1,0.3,0.2,0.4,0.4c0,0,0,0.1,0.1,0.1c0.1,0.3,0.2,0.6,0.2,1
			c-0.1,0.4-0.1,0.8-0.1,1.2c0,0.1,0,0.3,0,0.4c0,0.1,0,0.1,0.1,0.2l0.1,0.2c0.1,0.2,0.1,0.4,0.2,0.6c0.1,0.3,0.1,0.7,0.1,1.1
			c-0.3,0.7-1,1.2-1.7,1.5c-0.4,0.2-0.8,0.3-1.2,0.4c-0.2,0-0.4,0-0.6,0c-0.3,0-0.5,0-0.8,0c-0.9,0.2-1.9,0.4-2.8,0.7
			c-0.9,0.2-1.8,0.4-2.7,0.6c-1.8,0.4-3.6,0.2-5.2-0.6c-0.8-0.3-1.4-0.9-1.9-1.6c-0.4-0.7-0.6-1.6-0.6-2.4c-0.2,0.4-0.2,0.9-0.2,1.3
			c0.1,1.5,1,2.8,2.3,3.3c1.6,0.8,3.5,1,5.2,0.8c0.3,0,0.6,0,0.8,0.1c0.5,0,0.9,0.1,1.4,0.2c0.3,0.1,0.7,0.2,1.1,0.2
			c-1.1,1.1-2.1,2.3-2.9,3.6c-0.6,0.9-1.3,1.9-1.8,2.8c-0.5-0.5-1.2-0.7-1.9-0.4c-0.9,0.2-1.6,1-1.6,1.9c0,0-2.1-0.6-2.7,0.9
			c-0.6,1.5,0.3,1.9,0.3,1.9l0.7,0.3c-0.6,0.7-0.5,1.8,0.2,2.5c0,0,0.1,0.1,0.1,0.1c0.1,0,0.2,0.1,0.2,0.1c-0.2,0.3-0.5,0.7-0.7,1
			c-1.3,1-3.1,1.6-3.6,1.3c0,0,0,0,0,0l0,0c0,0-0.1,0-0.1,0.1c0.2,0.7,0.6,1.3,1.1,1.8c0.3,0.3,0.5,0.5,0.8,0.8l0.8,0.7
			c0.5,0.5,1,1.1,1.5,1.6c0.3,0.4,0.6,0.8,0.9,1.2c0.2,0.2,0.3,0.5,0.4,0.7c0.1,0.3,0.2,0.5,0.3,0.8c0.4,1.2,0.8,2.3,1.3,3.5
			c0.2,0.6,0.5,1.1,0.7,1.7l0.2,0.3c-0.2,0.1-0.4,0.2-0.6,0.3c-0.8,0.3-2.2-0.2-3.1-0.5c-0.2-0.4-0.4-0.7-0.6-1.1
			C34,49.9,32,48,29.6,46.6c-0.1-0.1-0.3-0.2-0.4-0.2c-0.1,0-0.2-0.1-0.3-0.1c-0.1-0.1-0.2-0.1-0.4-0.1c-0.3-0.1-0.6-0.2-0.8-0.3
			c-0.2-0.1-0.5-0.2-0.7-0.3c-0.4-0.2-0.8-0.5-1.1-0.7c0,0-0.1,0-0.1-0.1l-0.1,0c0,0-0.1,0-0.1,0c0.1,0.4,0.3,0.8,0.7,1.2
			c0.1,0.1,0.1,0.4,0,0.5c0,0,0,0,0,0l-0.1,0c-0.6,0.3-1.3,0.6-2,0.8c-1.4,0.4-2.8,0.6-4.2,0.5c-2.8-0.2-5.5-1.4-7.7-3.3
			c0,0-0.1-0.1-0.1-0.1c-0.3-0.2-0.7-0.1-0.9,0.2v0l-1,1.6c0,0.1-0.1,0.1-0.1,0.2l-0.6,4.4c-0.2,0.1-0.4,0.1-0.6,0.1
			c-0.6-0.1-1.1-0.2-1.6-0.5l-0.1-6.2c0.1,0,0.2-0.1,0.3-0.1c0.2-0.1,0.4-0.3,0.6-0.5c0.3-0.3,0.5-0.7,0.7-1.1
			c0.3-0.7,0.5-1.5,0.7-2.3c0.1-0.8,0.3-1.5,0.3-2.3c0-0.1,0-0.2,0-0.3c1.3,1.2,3.2,1.1,4.4-0.2c0.1-0.1,0.2-0.3,0.3-0.4
			c2.8,2.4,4.7,2.2,5.6,1.2c1.4-1.5,0.7-3.8,0.7-3.8c4.7-0.3,2.3-6.1-1.6-6.1c0-0.2,0-0.4,0-0.6c0.8-0.1,1.6-0.1,2.3-0.1
			c0.8,0,1.6,0.1,2.4,0.2c1.6,0.3,3.3,0.5,5,0.5c0.9,0,1.8-0.2,2.6-0.7c0.7-0.5,1.2-1.3,1.4-2.2v0c0,0,0-0.1,0-0.1
			c0-0.2-0.2-0.4-0.5-0.4c-1,0-2-0.1-3-0.4c-0.9-0.3-1.8-0.8-2.5-1.5c-0.9-1-1.6-2.2-1.9-3.5c0.2,0,0.3-0.1,0.5-0.2
			c1-0.5,1.6-1.6,1.3-2.6c0,0,2.6,0.2,2.9-1.8s-0.9-2.2-0.9-2.2l-0.9-0.2c0.5-1.1,0.1-2.3-1-2.9c-0.1,0-0.1,0-0.2-0.1
			c0,0-0.1,0-0.1,0c0,0,0,0,0-0.1c0.2-0.4,0.5-0.8,0.8-1.2c0.2-0.4,0.5-0.7,0.9-1l-0.9-0.9c-0.2,0.1-0.4,0.3-0.5,0.5
			c-0.2,0.2-0.3,0.4-0.5,0.7c-0.3,0.4-0.6,0.9-0.8,1.4s-0.5,0.9-0.7,1.4c-0.2,0.5-0.4,1-0.6,1.5c-0.6,2-0.8,4-0.6,6.1
			c0.2,2.1,1,4.1,2.5,5.7c0.8,0.8,1.8,1.4,2.9,1.7c0.9,0.3,1.8,0.4,2.7,0.5c-0.2,0.5-0.5,0.8-0.9,1.1c-0.6,0.3-1.3,0.5-2.1,0.5
			c-1.6-0.1-3.2-0.3-4.8-0.6c-0.8-0.1-1.7-0.2-2.5-0.2c-0.8,0-1.7,0-2.5,0.1c-1.7,0.1-3.4,0.6-4.9,1.3c-0.3,0.2-0.7,0.3-1,0.5
			c-2.9,1.2-5.3,1.3-6.6,0.4c-0.9-0.6-1.2-1.7-1-2.8c0.2-0.9,0.5-1.8,0.9-2.7c0.7-1.6,1.4-3.3-0.1-4.5c0.5-0.6,0.7-1.4,0.5-2.2
			c0-0.1-0.1-0.3-0.2-0.4l0,0c0,0-0.1-0.1-0.1-0.1s0-0.1-0.1-0.1c-0.7-0.8-1.3-0.8-2.4-1.3c-0.7-0.4-1.4-0.8-2-1.3
			c-0.1,0.2,0,0.5,0.1,0.7c0,0.1,0.1,0.2,0.1,0.2c-0.5-0.2-1-0.5-1.3-0.8l-0.6-0.6L0,13.8c-0.1,1.1-0.3,4.4,5.1,5.3l0,0
			c1.5,1,0.9,2,0.2,3.8c-0.4,0.9-0.7,1.9-1,2.8c-0.3,1.3,0.2,2.8,1.3,3.6c0.8,0.5,1.8,0.8,2.8,0.8c0.8,0,1.6-0.1,2.3-0.3
			c-0.3,0.3-0.6,0.7-0.9,1.1c-1,1.3-1.5,2.9-1.7,4.6c0,0.4,0,0.8,0,1.2l0,0.3v0.2l0,0.5c-0.1,0.7-0.2,1.5-0.3,2.2
			c-0.1,0.7-0.3,1.4-0.6,2.1c-0.1,0.3-0.3,0.6-0.5,0.8c-0.1,0.2-0.3,0.3-0.5,0.4c-0.3,0-0.6,0.3-0.6,0.6v0l0.2,8.6v0
			c0,0.1,0.1,0.3,0.1,0.4c0.1,0.2,0.3,0.3,0.5,0.4c0.2,0.1,0.3,0.2,0.5,0.3c0.3,0.1,0.7,0.2,1.1,0.3c0.7,0,1.4,0,2.1-0.3
			c0.2-0.1,0.4-0.3,0.5-0.5l0.9-6.2l0.5-0.8c1,0.8,2.1,1.4,3.2,1.9c0.6,0.2,1.2,0.5,1.8,0.6l0.6,2.2c0,0,0.1,1.1,2.7,1.1
			c0,0,1.9,0,1.8-0.6c0-0.2-0.3-0.8-0.5-1.5c-0.1-0.3-0.1-0.5-0.2-0.8c1.1-0.1,2.1-0.3,3.2-0.6c0.1,0,0.2-0.1,0.3-0.1l-0.6,1.1
			l-0.3,2.4c0,0-0.3,1,2.5,1.2c0,0,2,0.1,2-0.5c0-0.2-0.3-1.2-0.4-1.9c-0.1-0.5,0.9-1.6,1.6-2.5c1.9,1.3,3.6,2.9,4.9,4.8
			c0.4,0.6,0.8,1.2,1.2,1.8l0.6,0.9c0.1,0.2,0.2,0.4,0.4,0.5c0,0,0.1,0.1,0.1,0.1c0.1,0,0.1,0.1,0.2,0.1l0.1,0h0l0,0l0.1,0l0.3,0
			c0.4,0.1,0.7,0.2,1.1,0.3c0.4,0.1,0.9,0.1,1.3,0c0.2,0,0.4-0.1,0.6-0.2c0.2-0.1,0.4-0.2,0.6-0.4c0.2-0.2,0.3-0.4,0.4-0.7
			c0-0.3,0-0.5-0.1-0.7c0,0,0,0,0,0l0,0c-0.3-0.5-0.5-1-0.7-1.6c-0.2-0.6-0.4-1.1-0.6-1.7c-0.4-1.1-0.8-2.3-1.2-3.4
			c-0.1-0.3-0.2-0.6-0.4-0.9c-0.1-0.3-0.3-0.6-0.5-0.9c-0.3-0.5-0.7-1-1.1-1.5c-0.7-0.8-1.4-1.6-2.1-2.4c1.2-1.2,2.3-2.5,3.3-4
			c1.1-1.5,2-3.1,3-4.7s1.9-3.1,3-4.6c1-1.6,2.2-3,3.6-4.3l0,0l0.1,0l0.2,0l0.1,0l0.1,0c0.1,0,0.3-0.1,0.4-0.2
			c0.2-0.1,0.4-0.3,0.6-0.4c0.5-0.4,1.1-0.8,1.5-1.3c0.2-0.1,0.4-0.2,0.6-0.2c0.5-0.2,0.9-0.4,1.3-0.7c0.4-0.3,0.8-0.8,0.9-1.3
			C53.6,19.8,53.5,19.3,53.4,18.8 M26.7,3.3L26.7,3.3L26.7,3.3L26.7,3.3 M38.7,2.4c-0.6-0.2-1.1-0.3-1.7-0.3
			c0.3-0.4,0.7-0.6,1.2-0.6c0.3,0.1,0.7,0.5,0.9,1C38.9,2.5,38.8,2.4,38.7,2.4 M5.8,17.7c0,0,0,0.1,0,0.1s0,0.1,0,0.1l0,0
			c-0.1,0.2-0.2,0.4-0.4,0.6c-4.2-0.7-4.7-2.7-4.6-4c0.7,0.4,1.5,0.8,2.3,1c0-0.1-0.1-0.1-0.1-0.2c-0.2-0.4-0.1-0.5-0.1-0.5
			s0.9,0.4,1.8,0.6c0.9,0.2,1.5,1,1.3,2C5.9,17.4,5.9,17.5,5.8,17.7 M48.7,23.3c-0.2,0.1-0.4,0.2-0.6,0.3c-0.1,0-0.2,0.1-0.3,0.1
			c0,0-0.1,0-0.1,0l-0.1,0l-0.2,0c-0.4,0.1-0.9,0.1-1.4,0.1c-0.5,0-0.9-0.1-1.4-0.2c0.3-0.1,0.6-0.1,0.9-0.2
			c0.9-0.3,1.8-0.5,2.7-0.6c0.2,0,0.4,0,0.6,0c0.2,0,0.5,0,0.7,0C49.3,22.9,49,23.1,48.7,23.3"/>
		<path id="Tracé_26" class="st1" d="M34.1,13.2c-0.9-0.1-1.5-0.8-1.5-1.7c-0.1-0.9,0.5-1.6,1.4-1.8c0,0,0,0,0,0
			c0.9,0.1,1.6,0.8,1.5,1.7C35.6,12.3,35,13.1,34.1,13.2C34.2,13.2,34.1,13.2,34.1,13.2"/>
		<path id="Tracé_27" class="st1" d="M36.5,10.9c-1.5-0.8-3.2-1.2-4.9-1c0,0,5-2.6,7.7,3.6C38.4,12.5,37.5,11.6,36.5,10.9"/>
		<path id="Tracé_28" class="st1" d="M39.3,13.5C39.3,13.5,39.3,13.5,39.3,13.5c-0.9-1-1.8-1.8-2.9-2.6c-1.3-0.8-2.8-1.1-4.3-1
			c-0.2,0-0.3,0-0.5,0l0,0c0,0-0.1,0-0.1,0c0,0,0-0.1,0-0.1c0.8-0.4,1.6-0.6,2.5-0.6c1.6,0,3.8,0.7,5.3,4.2
			C39.4,13.4,39.4,13.4,39.3,13.5C39.4,13.5,39.3,13.5,39.3,13.5C39.3,13.5,39.3,13.5,39.3,13.5L39.3,13.5z M32.1,9.8
			c1.5-0.1,3.1,0.3,4.4,1.1c0.9,0.7,1.8,1.4,2.5,2.3c-1.5-3.1-3.5-3.7-5-3.7c-0.7,0-1.4,0.1-2.1,0.4L32.1,9.8"/>
		<path id="Tracé_29" class="st1" d="M31.6,11.3c0.2,0.9,0.9,1.5,1.7,1.7c0.4,0.1,0.9,0.1,1.3,0.1c0.5,0,0.9-0.1,1.4-0.2l-0.1,0
			c0.3-0.1,0.6-0.1,0.9-0.1c0.3,0,0.6,0,0.9,0.1c0.6,0.1,1.1,0.4,1.5,0.9c-0.5-0.3-1-0.4-1.6-0.4c-0.3,0-0.5,0-0.8,0.1
			c-0.3,0-0.5,0.1-0.7,0.2l0,0l0,0c-0.5,0.1-1,0.2-1.5,0.2c-0.5,0-1.1,0-1.6-0.2c-0.5-0.2-1-0.5-1.3-0.9
			C31.6,12.3,31.5,11.8,31.6,11.3"/>
	</g>
</g>
</svg>
