<svg xmlns="http://www.w3.org/2000/svg" xmlns:xlink="http://www.w3.org/1999/xlink" width="243" height="78.01" viewBox="0 0 243 78.01">
  <defs>
    <clipPath id="clip-path">
      <rect id="Rectangle_1" data-name="Rectangle 1" width="243" height="78.01" fill="none"/>
    </clipPath>
  </defs>
  <g id="Groupe_1" data-name="Groupe 1" clip-path="url(#clip-path)">
    <path id="Tracé_1" data-name="Tracé 1" d="M231.454,110.748a56.055,56.055,0,0,1-6.042,4.029,72.078,72.078,0,0,1-6.6,3.311,87.866,87.866,0,0,1-14.17,4.755,152.121,152.121,0,0,1-29.782,3.953q-7.5.317-14.985.177c-4.986-.062-9.957-.291-14.914-.567s-9.9-.68-14.826-1.086c-4.926-.434-9.836-.932-14.738-1.429-19.6-2.047-39-4.672-58.409-6.22a289.469,289.469,0,0,0-29.121-1.044c-4.854.1-9.7.411-14.537.967q-3.626.419-7.225,1.1c-2.409.423-3.724.985-6.109,1.6a51.45,51.45,0,0,1,5.7-2.881c2.321-.835,4.693-1.561,7.092-2.217a116.276,116.276,0,0,1,14.676-2.9,206.95,206.95,0,0,1,29.894-1.571c19.928.276,39.616,2.331,59.129,4.382q7.317.8,14.617,1.538c4.862.522,9.725.971,14.579,1.42,9.71.873,19.41,1.563,29.093,1.8a188.141,188.141,0,0,0,28.917-1.257,107.931,107.931,0,0,0,14.171-2.794q3.491-.948,6.89-2.22c2.28-.821,4.5-1.8,6.7-2.845" transform="translate(0 -61.625)" fill="#96be1f"/>
    <path id="Tracé_2" data-name="Tracé 2" d="M55.839,7.919c-1.019.65-2.338,3.444-2.338,3.444-2.585,4.965-2.468,15.193,6.8,15.092-.919,4.238-6.639,1.757-10.636,1.7-9.025-.118-12.884,4.55-12.6,9.966.036.7-.393,6.659-2.549,6.89l.169,8.585s1.029,1.224,3.35.438l.9-6.285.941-1.57c6.024,5.1,12.025,3.431,14.9,1.885a1.967,1.967,0,0,1,1.859-.033c5.985,2.784,7.84,8.994,8.523,9.1,1.443.234,1.941.728,3.2.187a.921.921,0,0,0,.6-1.254c-.991-1.334-2.869-7.177-2.869-7.177-.552-1.55-2.674-3.922-4.255-5.547C66.248,39.621,70.789,28.97,75,25.5A8.575,8.575,0,0,0,78,23.866l2.927-1.99.252-1.162-.6-1.721.2-2.186a11.486,11.486,0,0,0-3.78-3.906,12.564,12.564,0,0,1-2.016-2.977L71.7,6.993,67.719,4.481s-.583-2.187-1.562-2.186a5.119,5.119,0,0,0-1.865,1.722l-7.056.837-1.361-.233L54.765,4.3,53.632,5.872l1.151,2.215Z" transform="translate(-19.214 -1.277)" fill="#fff"/>
    <path id="Tracé_3" data-name="Tracé 3" d="M20.919,30.833a14.967,14.967,0,0,0,2.038,1.232l-.07-.865,1.475.865s2.974.626,2.342,2.722l-.609,1.189a6.905,6.905,0,0,1-4.051-1.555s-1.4-2.723-1.124-3.588" transform="translate(-11.624 -17.163)" fill="#fff"/>
    <path id="Tracé_4" data-name="Tracé 4" d="M76.067,84.977s3.247,1.621-.446,2.535c.613,1.569-1.556,2.446-2.111.428-1.5.1-2.734-1.43-.746-2.516-.869-.9-.03-2.346,1.084-1.4.772-1.217,3.053-.562,2.219.952" transform="translate(-39.928 -46.42)" fill="#014f98"/>
    <path id="Tracé_5" data-name="Tracé 5" d="M70.833,11.081a.665.665,0,0,0-.157-1.019c-.095-.059-.526.3-.775-.042-.213-.294-.309-.567-.582-.9-.517-.639-.713-.8-.981-.93-5.264-2.3-6.889-.235-7.2.019s-.959.611,1.271,4.092a4.33,4.33,0,0,0,5.7,1.664,2.753,2.753,0,0,1,.919-2.153,2.8,2.8,0,0,1,1.8-.728" transform="translate(-33.848 -3.958)" fill="#014f98"/>
    <path id="Tracé_6" data-name="Tracé 6" d="M121.482,20.96c-.643.173-1.354-.466-1.58-1.163a1.011,1.011,0,0,1,.764-1.383,1.364,1.364,0,0,1,1.581.963,1.206,1.206,0,0,1-.765,1.583" transform="translate(-66.705 -10.229)" fill="#014f98"/>
    <path id="Tracé_7" data-name="Tracé 7" d="M48.419,99.922a8.535,8.535,0,0,1-3.258-1.692c-.935-.781-2.28-2.6-2.145-2.845a19.28,19.28,0,0,0,2.475,2.5,24.493,24.493,0,0,0,2.928,2.039" transform="translate(-23.94 -53.096)" fill="#014f98"/>
    <path id="Tracé_8" data-name="Tracé 8" d="M44.014,97.372a1.73,1.73,0,0,1,.295,2.035c.389.092.67-1.146.67-1.146" transform="translate(-24.5 -54.202)" fill="#014f98"/>
    <path id="Tracé_9" data-name="Tracé 9" d="M121.672,17.3a.948.948,0,0,0-1.06-.1,1.376,1.376,0,0,0-.431,1.1,3.259,3.259,0,0,0,1.214,2.4,3.5,3.5,0,0,1-1.571-2.384,1.725,1.725,0,0,1,.423-1.487,1.273,1.273,0,0,1,.893-.333,2.212,2.212,0,0,1,.865.207Z" transform="translate(-66.689 -9.189)" fill="#014f98"/>
    <path id="Tracé_10" data-name="Tracé 10" d="M134.643,35.062s-1.794,1.41-1.36,2.992c.36,1.319,1.186.7,1.123.192-.1-.79-1.123-.819.237-3.185" transform="translate(-74.154 -19.517)" fill="#014f98"/>
    <path id="Tracé_11" data-name="Tracé 11" d="M113.771,39.951s2.841.628,2.989,2.774c.112,1.629-1,1.309-1.417.79-.576-.731,1.015-.967-.561-2.75-.791-.894-1.01-.814-1.01-.814" transform="translate(-63.33 -22.237)" fill="#014f98"/>
    <path id="Tracé_12" data-name="Tracé 12" d="M95.873,41.734a1.286,1.286,0,0,1,1.745-.368.642.642,0,0,1,.32.543,1.893,1.893,0,0,0-.519-.155,3.725,3.725,0,0,0-.464-.033c-.32-.014-.627.022-1.082.013" transform="translate(-53.367 -22.917)" fill="#014f98"/>
    <path id="Tracé_13" data-name="Tracé 13" d="M126.078,22.279a3.994,3.994,0,0,1-.952.978c-.123.055.34-.442.34-.442l.474-.886" transform="translate(-69.639 -12.207)" fill="#014f98"/>
    <path id="Tracé_14" data-name="Tracé 14" d="M123.6,23.747a.294.294,0,0,1,.029-.363.7.7,0,0,1,.357-.208,2.225,2.225,0,0,0,.281-.083.683.683,0,0,0,.2-.1.761.761,0,0,0,.272-.34,2.034,2.034,0,0,1,.294-.556,1.855,1.855,0,0,1,.127.635.838.838,0,0,1-.369.672,1.118,1.118,0,0,1-.386.153,1.336,1.336,0,0,1-.361.014c-.168-.005-.334-.041-.445.178" transform="translate(-68.773 -12.3)" fill="#014f98"/>
    <path id="Tracé_15" data-name="Tracé 15" d="M167.532,51.143l-.136.633a7.923,7.923,0,0,1-4.593,5.288,5.354,5.354,0,0,1,2.567,4.47,7.039,7.039,0,0,1-.09.931l-.09.485c-1.306,7.039-7.655,8.6-16.39,8.6a80.839,80.839,0,0,1-8.645-.446c-1.666-.261-2.386-.633-2.386-1.825a4.308,4.308,0,0,1,.136-1.006l4.637-21.864c.405-2.012,1.261-2.532,3.422-2.794,1.937-.261,6.485-.447,8.735-.447,7.61,0,13.013,1.677,13.013,6.407a6.612,6.612,0,0,1-.18,1.565m-14.454,8.566h-4.367l-1.171,5.7h3.693c3.512,0,4.773-1.116,5.177-2.681l.09-.335a3.462,3.462,0,0,0,.09-.671c0-1.155-.99-2.012-3.512-2.012m1.441-10.392c-.361,0-3.243.037-3.557.037l-1.171,5.29h4.367c2.972,0,4.143-1.043,4.323-2.347l.09-.6a1.539,1.539,0,0,0,.044-.448c0-1.229-.945-1.936-4.1-1.936" transform="translate(-76.688 -24.031)" fill="#014f98"/>
    <path id="Tracé_16" data-name="Tracé 16" d="M231.292,63.252l-.725,3.25c-1.716,7.667-6.829,10.382-13.925,10.382-5.379,0-9.8-2.493-9.8-7.826a12.685,12.685,0,0,1,.305-2.556l.725-3.25c1.793-7.984,7.325-10.414,13.925-10.414,5.3,0,9.8,2.3,9.8,7.763a11.189,11.189,0,0,1-.305,2.65m-10.72-4.766c-2.671,0-4.082,1.389-4.845,4.766L215,66.5a10.309,10.309,0,0,0-.267,1.957c0,1.955,1.068,2.777,3.128,2.777,2.67,0,4.082-1.358,4.845-4.734l.724-3.25a10.3,10.3,0,0,0,.267-1.957c0-1.956-1.068-2.809-3.128-2.809" transform="translate(-115.135 -29.412)" fill="#014f98"/>
    <path id="Tracé_17" data-name="Tracé 17" d="M292.269,54.181l-4.578,21.647A1.767,1.767,0,0,1,286.013,77h-4.731a1.41,1.41,0,0,1-1.412-.851l-5.646-10.571c-.114-.221-.23-.253-.344-.253s-.191.063-.228.284l-2.29,10.76a.944.944,0,0,1-.915.631h-5.722c-.382,0-.649-.22-.649-.536v-.1l4.578-21.647a1.767,1.767,0,0,1,1.679-1.167h4.654a1.411,1.411,0,0,1,1.335.915l5.8,10.887c.114.221.153.284.267.284s.229-.031.267-.284l2.365-11.171a.945.945,0,0,1,.915-.631h5.724c.381,0,.61.221.61.5Z" transform="translate(-146.997 -29.808)" fill="#014f98"/>
    <path id="Tracé_18" data-name="Tracé 18" d="M342.121,54.149l-4.731,22.216a.821.821,0,0,1-.916.631h-6.256c-.458,0-.686-.315-.611-.631l4.732-22.216a.872.872,0,0,1,.877-.6h6.258c.419,0,.725.189.648.6" transform="translate(-183.466 -29.808)" fill="#014f98"/>
    <path id="Tracé_19" data-name="Tracé 19" d="M378.509,72.42l-.839,3.85c-.076.379-.381.568-.877.631a47.2,47.2,0,0,1-6.027.379c-4.311,0-8.547-1.167-8.547-5.428a8.822,8.822,0,0,1,.191-1.641l3.4-16.03a1,1,0,0,1,.953-.631h6.219c.381,0,.61.221.61.5v.126l-3.4,16.03a3.617,3.617,0,0,0-.077.6c0,.726.458.978,1.565.978h6.18a.574.574,0,0,1,.648.536Z" transform="translate(-201.628 -29.808)" fill="#014f98"/>
    <path id="Tracé_20" data-name="Tracé 20" d="M424.821,76.64h-6.484a.619.619,0,0,1-.648-.6l-.116-4.386h-6.79l-2.022,4.386a1.039,1.039,0,0,1-.878.6H401.13c-.342,0-.533-.158-.533-.411a.859.859,0,0,1,.075-.252L409.9,56.665c1.488-3.124,4.5-3.755,8.126-3.755s6.372.631,6.524,3.755l.992,19.312v.032a.671.671,0,0,1-.725.631M417.383,58.59c0-.285,0-.442-.344-.442s-.381.157-.5.442l-3.586,8.015h4.579Z" transform="translate(-222.99 -29.452)" fill="#014f99"/>
    <path id="Tracé_21" data-name="Tracé 21" d="M475.321,54.149l-4.732,22.216a.82.82,0,0,1-.915.631h-6.257c-.458,0-.686-.315-.611-.631l4.732-22.216a.872.872,0,0,1,.876-.6h6.258c.419,0,.725.189.648.6" transform="translate(-257.611 -29.808)" fill="#014f98"/>
    <path id="Tracé_22" data-name="Tracé 22" d="M519.55,54.149l-1.942,4.039a.922.922,0,0,1-.917.6h-5.683l-3.74,17.577a.945.945,0,0,1-.916.631h-6.219c-.381,0-.61-.221-.61-.5v-.126l3.738-17.577h-5.8c-.381,0-.649-.189-.649-.5v-.095l.877-4.039a.872.872,0,0,1,.878-.6H517.8c.381,0,1.752.221,1.752.5Z" transform="translate(-276.55 -29.808)" fill="#014f98"/>
    <path id="Tracé_23" data-name="Tracé 23" d="M350.1,38.812c0,1.354-1.542,2.45-3.446,2.45s-3.447-1.1-3.447-2.45,1.544-2.452,3.447-2.452,3.446,1.1,3.446,2.452" transform="translate(-191.047 -20.24)" fill="#014f98"/>
    <path id="Tracé_24" data-name="Tracé 24" d="M482.858,38.812c0,1.353-1.544,2.451-3.446,2.451s-3.447-1.1-3.447-2.451,1.543-2.452,3.447-2.452,3.446,1.1,3.446,2.452" transform="translate(-264.944 -20.24)" fill="#014f98"/>
    <path id="Tracé_25" data-name="Tracé 25" d="M73.444,18.764c-.063-.23-.14-.449-.217-.658l-.049-.141c-.008-.041-.015-.056-.022-.1a1.34,1.34,0,0,1-.02-.251c0-.356.117-.776.159-1.262a2.344,2.344,0,0,0-.241-1.288,2.659,2.659,0,0,0-.279-.573,6.908,6.908,0,0,0-1.318-1.451c-.479-.418-.986-.806-1.483-1.173a5.859,5.859,0,0,1-1.214-1.188c-.673-.9-1.234-2.037-2.083-2.994a14.221,14.221,0,0,0-2.223-2.056,3.619,3.619,0,0,0,.939-.635C66.922,3.64,66.355.8,66.22.461S64.907-.184,62.988.132a5.387,5.387,0,0,0-3.1,2.269A2.35,2.35,0,0,0,58.364.79a2.17,2.17,0,0,0-2.1,1.029c-.063.1-.137.227-.211.358-.464.067-.927.141-1.382.226a16.266,16.266,0,0,1-1.789.3c-.588.01-1.268-.01-1.932.033a7.812,7.812,0,0,0-1.035.126,2.694,2.694,0,0,0-1.1.45c-.23-.14-.479-.254-.719-.372a3.957,3.957,0,0,0-.983-.3,2.121,2.121,0,0,0-.3-.023,1.189,1.189,0,0,0-.2.018.464.464,0,0,0-.085.02l-.057.017-.039.017a1.267,1.267,0,0,0-.5.387,1.841,1.841,0,0,0-.361.967,1.788,1.788,0,0,0,.154.986A3.884,3.884,0,0,0,47,6.369a3.15,3.15,0,0,1-.513-.725,5.242,5.242,0,0,1-.362-.783,1.586,1.586,0,0,1,.355-1.384.559.559,0,0,1,.237-.145l.019,0c.022-.005.04-.008.031,0s.016,0,.035,0a1.42,1.42,0,0,1,.168.025,7.488,7.488,0,0,1,.814.254,6.94,6.94,0,0,0,1.78.528l.015.016a1.563,1.563,0,0,1,.6-.223,5.139,5.139,0,0,1,.523-.077,3.13,3.13,0,0,0,2.763,2.2,2.848,2.848,0,0,1,2.124,1.083c.2.233.559-.545-.079-1.555s2.6.348,3.325,2.095c.595,1.444,1.229-2.361-.216-4.207a12.594,12.594,0,0,1,1.417.6,26.675,26.675,0,0,1,3.135,1.889,14.3,14.3,0,0,1,2.684,2.332c.785.867,1.293,1.9,2.073,2.938a6.857,6.857,0,0,0,1.415,1.366c.5.366.982.728,1.434,1.117.059.052.117.106.176.158-.025.01-.056.013-.078.024a1.5,1.5,0,0,0-.408.3c-.2.2-.326.376-.461.519a.86.86,0,0,1-.776.367,8.117,8.117,0,0,0-1.521.05,25.4,25.4,0,0,0-2.833.5c-.466.107-.928.223-1.394.361a7.173,7.173,0,0,0-.72.25,2.186,2.186,0,0,0-.213.1.349.349,0,0,0-.037.023,4.112,4.112,0,0,0-1.47-.431,1.938,1.938,0,0,0-.94.2,2.385,2.385,0,0,0-.675.519,2.14,2.14,0,0,0-.645,1.5,2.266,2.266,0,0,0,.643,1.487h0a.538.538,0,0,0,.716.051.443.443,0,0,0,.055-.66l-.007-.008a1.373,1.373,0,0,1-.388-.882,1.239,1.239,0,0,1,.388-.859,1.019,1.019,0,0,1,.815-.4,3.608,3.608,0,0,1,1.154.381,1.609,1.609,0,0,0,.263.074A.759.759,0,0,0,63,17.229c.065-.052.083-.068.09-.075s.058-.029.1-.046c.174-.073.391-.142.6-.206.43-.126.877-.236,1.324-.337.9-.2,1.809-.366,2.71-.477a7.108,7.108,0,0,1,1.294-.06,1.85,1.85,0,0,0,.971-.171,2.236,2.236,0,0,0,.684-.537c.17-.188.306-.372.427-.494a.553.553,0,0,1,.134-.11c.023-.009,0,0,.023,0a.4.4,0,0,1,.141.059,1.4,1.4,0,0,1,.215.154,2.108,2.108,0,0,1,.371.391c.024.035.04.072.061.107a3.144,3.144,0,0,1,.161.966,11.358,11.358,0,0,0-.136,1.224,2.172,2.172,0,0,0,.036.4,1.9,1.9,0,0,0,.053.215l.06.168c.077.2.147.4.2.587a1.961,1.961,0,0,1,.054,1.067,2.714,2.714,0,0,1-1.718,1.464,6.461,6.461,0,0,1-1.217.424,3.062,3.062,0,0,1-.614.038,6.227,6.227,0,0,0-.76.043,22.085,22.085,0,0,0-2.8.66,25.59,25.59,0,0,1-2.7.591,8.75,8.75,0,0,1-5.249-.563,4.368,4.368,0,0,1-1.893-1.6A4.634,4.634,0,0,1,55,18.679,3,3,0,0,0,54.81,20a3.743,3.743,0,0,0,2.345,3.341,9.271,9.271,0,0,0,5.236.753c.279.018.56.032.834.059a11.3,11.3,0,0,1,1.385.219c.336.072.705.175,1.1.232A22.374,22.374,0,0,0,62.8,28.162c-.646.931-1.254,1.876-1.849,2.825a1.743,1.743,0,0,0-1.884-.43,2.025,2.025,0,0,0-1.618,1.894s-2.069-.607-2.713.931.268,1.937.268,1.937l.7.3a1.746,1.746,0,0,0,.318,2.56.8.8,0,0,0,.238.088q-.364.506-.745,1c-1.322.988-3.112,1.6-3.6,1.277-.007,0-.007,0-.011.006l0,0a.136.136,0,0,0-.074.067,4.233,4.233,0,0,0,1.068,1.77c.262.279.541.508.8.753l.778.743c.515.521,1.025,1.054,1.5,1.6.3.386.6.777.854,1.177a7.875,7.875,0,0,1,.427.743,5.113,5.113,0,0,1,.3.783c.379,1.164.814,2.309,1.264,3.455.235.57.481,1.136.747,1.7l.165.34a2.3,2.3,0,0,1-.568.292c-.819.309-2.245-.19-3.051-.529-.2-.374-.41-.748-.632-1.116a15.529,15.529,0,0,0-5.854-5.71c-.145-.083-.3-.159-.447-.235-.09-.045-.175-.1-.266-.139a2.833,2.833,0,0,0-.36-.149c-.26-.108-.559-.2-.794-.274a4.882,4.882,0,0,1-.724-.3A7.11,7.11,0,0,1,45.9,44.78a.386.386,0,0,1-.082-.07l-.055-.046c-.039-.026-.069-.029-.09-.011a2.708,2.708,0,0,0,.657,1.174.349.349,0,0,1-.082.517l-.078.041a12.578,12.578,0,0,1-1.972.79,12.161,12.161,0,0,1-4.228.526A12.918,12.918,0,0,1,32.3,44.429a.672.672,0,0,0-.136-.092.725.725,0,0,0-.943.248l0,.007L30.27,46.16a.623.623,0,0,0-.082.229l-.629,4.366a1.981,1.981,0,0,1-.623.1,5.241,5.241,0,0,1-1.631-.492L27.178,44.2a2.02,2.02,0,0,0,.26-.143,2.656,2.656,0,0,0,.583-.536,4.754,4.754,0,0,0,.669-1.149,11.655,11.655,0,0,0,.67-2.308,20.833,20.833,0,0,0,.313-2.317c.008-.107.013-.217.019-.326a3.081,3.081,0,0,0,4.692-.624c2.759,2.425,4.664,2.22,5.594,1.249,1.4-1.461.716-3.77.716-3.77,4.726-.288,2.335-6.128-1.636-6.117a3.844,3.844,0,0,0-.014-.591,22.943,22.943,0,0,1,2.34-.131,16.091,16.091,0,0,1,2.36.174,35.869,35.869,0,0,0,4.962.53,4.942,4.942,0,0,0,2.624-.674,3.308,3.308,0,0,0,1.39-2.2l0-.023a.378.378,0,0,0,.006-.084.453.453,0,0,0-.482-.418,8.854,8.854,0,0,1-3.013-.394,6.35,6.35,0,0,1-2.481-1.523,7.494,7.494,0,0,1-1.885-3.509,2.708,2.708,0,0,0,.465-.185,2.344,2.344,0,0,0,1.326-2.633s2.607.18,2.9-1.785-.9-2.2-.9-2.2l-.915-.171A2.133,2.133,0,0,0,46.6,9.419a1.137,1.137,0,0,0-.129-.027c.013-.023.024-.046.037-.07.242-.428.5-.848.774-1.242a3.906,3.906,0,0,1,.866-.958l-.869-.854a2.118,2.118,0,0,0-.547.541,7.749,7.749,0,0,0-.492.662c-.3.444-.557.894-.8,1.35s-.472.933-.685,1.379a12.664,12.664,0,0,0-.561,1.46,15.018,15.018,0,0,0-.634,6.074,9.182,9.182,0,0,0,2.518,5.672,7.283,7.283,0,0,0,2.86,1.7,9.983,9.983,0,0,0,2.692.486,2.231,2.231,0,0,1-.88,1.11,3.911,3.911,0,0,1-2.057.46,35.227,35.227,0,0,1-4.774-.607,17.418,17.418,0,0,0-2.529-.231,21.7,21.7,0,0,0-2.526.1,15.554,15.554,0,0,0-4.924,1.264,11.079,11.079,0,0,0-1.017.532c-2.939,1.184-5.278,1.333-6.587.409a2.667,2.667,0,0,1-.965-2.78,11.828,11.828,0,0,1,.9-2.661c.693-1.616,1.4-3.283-.148-4.5a2.706,2.706,0,0,0,.521-2.217,1.424,1.424,0,0,0-.214-.407l.019.006c-.026-.032-.051-.056-.076-.086s-.044-.051-.067-.076c-.675-.764-1.281-.83-2.357-1.289a12.4,12.4,0,0,1-2.035-1.275,1.027,1.027,0,0,0,.051.7,2.275,2.275,0,0,0,.123.243,4.573,4.573,0,0,1-1.349-.836l-.584-.578-.067.887c-.087,1.093-.346,4.376,5.144,5.309l0,0c1.494,1.016.942,2.022.18,3.8a12.612,12.612,0,0,0-.953,2.844,3.487,3.487,0,0,0,1.315,3.582,4.8,4.8,0,0,0,2.812.768,10.128,10.128,0,0,0,2.321-.3,8.606,8.606,0,0,0-.9,1.056,9.008,9.008,0,0,0-1.656,4.551,10.877,10.877,0,0,0-.036,1.205l.011.29,0,.234-.033.54a19.568,19.568,0,0,1-.3,2.18,10.581,10.581,0,0,1-.6,2.064,3.545,3.545,0,0,1-.486.844.841.841,0,0,1-.519.356.636.636,0,0,0-.62.621v.033l.161,8.585v.024a.556.556,0,0,0,.149.364,2.325,2.325,0,0,0,.484.408,3.154,3.154,0,0,0,.506.267,3.63,3.63,0,0,0,1.092.263,5.12,5.12,0,0,0,2.072-.286.669.669,0,0,0,.46-.53l.874-6.167.459-.771a15.6,15.6,0,0,0,3.24,1.935,13.382,13.382,0,0,0,1.774.619l.551,2.23s.051,1.118,2.68,1.131c0,0,1.864-.009,1.849-.614-.007-.221-.338-.828-.515-1.464a6.655,6.655,0,0,1-.169-.828,13.8,13.8,0,0,0,3.182-.587c.107-.033.209-.077.314-.112l-.609,1.092-.344,2.374s-.29,1.013,2.465,1.244c0,0,1.956.143,2-.534.014-.247-.263-1.163-.389-1.887-.081-.462.866-1.64,1.6-2.475a17.407,17.407,0,0,1,4.894,4.821c.411.571.792,1.162,1.166,1.767l.572.924a2.772,2.772,0,0,0,.395.507.871.871,0,0,0,.1.082.732.732,0,0,0,.186.087l.067.016.017,0,.032.006.067.011.263.05c.353.07.7.174,1.093.273a2.923,2.923,0,0,0,1.32.04,3.5,3.5,0,0,0,.613-.191,1.834,1.834,0,0,0,.614-.38,1.257,1.257,0,0,0,.369-.681,1.355,1.355,0,0,0-.08-.746.122.122,0,0,0-.015-.029l-.03-.046a9.477,9.477,0,0,1-.74-1.568c-.219-.558-.419-1.127-.616-1.7-.411-1.136-.776-2.291-1.162-3.438a6.194,6.194,0,0,0-.352-.924,8.888,8.888,0,0,0-.489-.86A18,18,0,0,0,56.807,44.5c-.675-.837-1.4-1.628-2.132-2.4a25.117,25.117,0,0,0,3.265-3.967c1.065-1.539,2.043-3.111,3.021-4.676s1.946-3.126,2.965-4.644a22.6,22.6,0,0,1,3.625-4.306h0l.109-.02.183-.041.11-.026.1-.03a2.492,2.492,0,0,0,.4-.179,5.6,5.6,0,0,0,.632-.4,13.942,13.942,0,0,0,1.546-1.292c.213-.077.417-.161.62-.245a5.665,5.665,0,0,0,1.312-.727,2.548,2.548,0,0,0,.928-1.277,2.742,2.742,0,0,0-.038-1.507M46.715,3.332h0l.014-.005-.016.006M58.739,2.4a5.841,5.841,0,0,0-1.709-.309,1.334,1.334,0,0,1,1.178-.574c.311.057.658.493.881,1.015-.117-.043-.229-.094-.349-.133M25.876,17.653c-.013.034-.027.065-.042.1s-.02.055-.035.082l0,0a3.449,3.449,0,0,1-.362.587C21.24,17.73,20.784,15.7,20.8,14.4a8.339,8.339,0,0,0,2.272.972c-.028-.053-.054-.1-.075-.156-.17-.392-.118-.489-.118-.489s.919.356,1.777.61a1.672,1.672,0,0,1,1.223,2.31m42.838,5.657c-.208.108-.416.214-.616.305a1.955,1.955,0,0,1-.27.1.775.775,0,0,1-.076.017l-.069.01-.176.025a6.659,6.659,0,0,1-1.359.1,9.5,9.5,0,0,1-1.36-.211c.307-.071.614-.141.916-.219a21.63,21.63,0,0,1,2.673-.611,5.2,5.2,0,0,1,.648-.031,4.442,4.442,0,0,0,.68-.036c-.331.186-.661.372-.99.55" transform="translate(-11.164 0)" fill="#014f98"/>
    <path id="Tracé_26" data-name="Tracé 26" d="M95.144,25.417a1.669,1.669,0,0,1-1.525-1.708A1.571,1.571,0,0,1,95,21.951a1.674,1.674,0,0,1,1.525,1.718,1.561,1.561,0,0,1-1.382,1.747" transform="translate(-52.112 -12.219)" fill="#014f98"/>
    <path id="Tracé_27" data-name="Tracé 27" d="M96.212,22.523a8.365,8.365,0,0,0-4.863-1.049s4.953-2.634,7.686,3.6a19.3,19.3,0,0,0-2.823-2.554" transform="translate(-50.849 -11.646)" fill="#014f98"/>
    <path id="Tracé_28" data-name="Tracé 28" d="M98.948,25.06a.07.07,0,0,1-.054-.023,19.4,19.4,0,0,0-2.811-2.544,7.858,7.858,0,0,0-4.341-1.044c-.158,0-.317,0-.477.008h0a.068.068,0,0,1-.066-.047.061.061,0,0,1,.032-.073,5.676,5.676,0,0,1,2.462-.561c1.587,0,3.8.726,5.315,4.179a.061.061,0,0,1,.016.04.067.067,0,0,1-.07.064Zm-7.206-3.739a7.991,7.991,0,0,1,4.424,1.07,18.273,18.273,0,0,1,2.545,2.252c-1.48-3.077-3.533-3.738-5.021-3.738a5.762,5.762,0,0,0-2.11.418h.163" transform="translate(-50.762 -11.565)" fill="#014f98"/>
    <path id="Tracé_29" data-name="Tracé 29" d="M91.3,25.475a2.108,2.108,0,0,0,1.742,1.663,5.413,5.413,0,0,0,1.322.075,12.649,12.649,0,0,0,1.381-.161l-.055.014a4.785,4.785,0,0,1,.945-.148,4.187,4.187,0,0,1,.938.068,2.384,2.384,0,0,1,1.519.907,3.176,3.176,0,0,0-1.583-.375,4.139,4.139,0,0,0-.789.08,4.032,4.032,0,0,0-.742.193l-.017.007-.038.008a7.985,7.985,0,0,1-1.521.211,4.522,4.522,0,0,1-1.581-.2,2.365,2.365,0,0,1-1.291-.938,1.76,1.76,0,0,1-.231-1.407" transform="translate(-50.787 -14.181)" fill="#014f98"/>
  </g>
</svg>
