<svg xmlns="http://www.w3.org/2000/svg" width="104.372" height="7.354" viewBox="0 0 104.372 7.354">
  <path id="Tracé_1078" data-name="Tracé 1078" d="M104.372,110.726a25.279,25.279,0,0,1-2.725,1.817,32.5,32.5,0,0,1-2.974,1.493,39.624,39.624,0,0,1-6.39,2.144,68.6,68.6,0,0,1-13.43,1.783q-3.383.143-6.757.08c-2.249-.028-4.49-.131-6.726-.256s-4.463-.307-6.686-.49-4.435-.42-6.646-.644c-8.838-.923-17.586-2.107-26.339-2.8a130.536,130.536,0,0,0-13.132-.471c-2.189.044-4.375.186-6.555.436q-1.635.189-3.258.5c-1.086.191-1.679.444-2.755.721a23.2,23.2,0,0,1,2.569-1.3c1.047-.376,2.116-.7,3.2-1a52.433,52.433,0,0,1,6.618-1.307,93.321,93.321,0,0,1,13.481-.708c8.987.125,17.865,1.051,26.664,1.976q3.3.363,6.592.693c2.192.236,4.385.438,6.574.64,4.379.393,8.753.7,13.119.812a84.84,84.84,0,0,0,13.04-.567,48.67,48.67,0,0,0,6.39-1.26q1.574-.427,3.107-1c1.028-.37,2.028-.811,3.02-1.283" transform="translate(0 -110.707)" fill="#fff"/>
</svg>
